<svg class="svg" viewBox="0 0 2200 3000" xmlns="http://www.w3.org/2000/svg">
  <text x="0" y="20">1</text>
  <g transform="translate(0, 30)">
    <rect id="new1" x="0" y="0" width="1" height="1" />
  </g>

  <text x="0" y="70">10</text>
  <g transform="translate(0, 80)">
    <g id="new10">
      <use href="#new1" y="0" x="0" />
      <use href="#new1" y="0" x="2" />
      <use href="#new1" y="0" x="4" />
      <use href="#new1" y="0" x="6" />
      <use href="#new1" y="0" x="8" />
      <use href="#new1" y="0" x="10" />
      <use href="#new1" y="0" x="12" />
      <use href="#new1" y="0" x="14" />
      <use href="#new1" y="0" x="16" />
      <use href="#new1" y="0" x="18" />
    </g>
  </g>

  <text x="0" y="120">100</text>
  <g transform="translate(0, 130)">
    <g id="new100">
      <use href="#new10" x="0" y="0" />
      <use href="#new10" x="0" y="2" />
      <use href="#new10" x="0" y="4" />
      <use href="#new10" x="0" y="6" />
      <use href="#new10" x="0" y="8" />
      <use href="#new10" x="0" y="10" />
      <use href="#new10" x="0" y="12" />
      <use href="#new10" x="0" y="14" />
      <use href="#new10" x="0" y="16" />
      <use href="#new10" x="0" y="18" />
    </g>
  </g>

  <text x="0" y="180">1 000</text>
  <g transform="translate(0, 190)">
    <g id="new1000">
      <use href="#new100" y="0" x="0" />
      <use href="#new100" y="0" x="22" />
      <use href="#new100" y="0" x="44" />
      <use href="#new100" y="0" x="66" />
      <use href="#new100" y="0" x="88" />
      <use href="#new100" y="0" x="110" />
      <use href="#new100" y="0" x="132" />
      <use href="#new100" y="0" x="154" />
      <use href="#new100" y="0" x="176" />
      <use href="#new100" y="0" x="198" />
    </g>
  </g>

  <text x="0" y="250">10 000</text>
  <g transform="translate(0, 260)">
    <g id="new10000">
      <use href="#new1000" x="0" y="0" />
      <use href="#new1000" x="0" y="22" />
      <use href="#new1000" x="0" y="44" />
      <use href="#new1000" x="0" y="66" />
      <use href="#new1000" x="0" y="88" />
      <use href="#new1000" x="0" y="110" />
      <use href="#new1000" x="0" y="132" />
      <use href="#new1000" x="0" y="154" />
      <use href="#new1000" x="0" y="176" />
      <use href="#new1000" x="0" y="198" />
    </g>
  </g>

  <text x="0" y="520">100 000</text>
  <g transform="translate(0, 530)">
    <g id="new100000">
      <use href="#new10000" y="0" x="0" />
      <use href="#new10000" y="0" x="220" />
      <use href="#new10000" y="0" x="440" />
      <use href="#new10000" y="0" x="660" />
      <use href="#new10000" y="0" x="880" />
      <use href="#new10000" y="0" x="1100" />
      <use href="#new10000" y="0" x="1320" />
      <use href="#new10000" y="0" x="1540" />
      <use href="#new10000" y="0" x="1760" />
      <use href="#new10000" y="0" x="1980" />
    </g>
  </g>

  <text x="0" y="790">1 000 000</text>
  <g transform="translate(0, 800)">
    <g id="new1000000">
      <use href="#new100000" x="0" y="0" />
      <use href="#new100000" x="0" y="220" />
      <use href="#new100000" x="0" y="440" />
      <use href="#new100000" x="0" y="660" />
      <use href="#new100000" x="0" y="880" />
      <use href="#new100000" x="0" y="1100" />
      <use href="#new100000" x="0" y="1320" />
      <use href="#new100000" x="0" y="1540" />
      <use href="#new100000" x="0" y="1760" />
      <use href="#new100000" x="0" y="1980" />
    </g>
  </g>
</svg>
